<svg xmlns="http://www.w3.org/2000/svg" viewBox="0 0 92.96 129.87">
    <defs>
        <style>
            .cls-1{fill:#fff;}.cls-2{fill:#f2f2f2;}.cls-3{fill:#e5e5e5;}.cls-4{fill:#4a5d92;}.cls-5{fill:#3b466c;}.cls-6{fill:#23263a;}
        </style>
    </defs>
    <title>Ресурс 3</title>
    <g id="Слой_2" data-name="Слой 2">
        <g id="Слой_1-2" data-name="Слой 1">
            <rect class="cls-1" x="20.22" y="52.71" width="1.11" height="11.9"
                  transform="translate(-40.56 48.15) rotate(-60.77)"/>
            <rect class="cls-1" x="61.59" y="28.42" width="1.1" height="36.18"
                  transform="translate(-9.83 75.59) rotate(-58.81)"/>
            <path class="cls-1"
                  d="M15.35,55.39a.82.82,0,0,1,.38-.35l.13-.08L45.71,36.84a1.4,1.4,0,0,1,.42-.15l.15,0,.36-.2.21.24a.55.55,0,0,1,.27.38l.07.33-.12.1c0,.1,0,.19,0,.29.06,3.74,0,7.21-.11,10.55a5.23,5.23,0,0,0,0,.56l.06.35L26.17,61.9V87.08l-.21.17c-.3.22-.62.42-.94.61l-6.68,4.06L16.56,93a3.53,3.53,0,0,1-.39.17l-.13,0a1.18,1.18,0,0,1-.31.08h-.09l0,0-.25-.06m-.15-.91h0V55.9a1.11,1.11,0,0,1,.09-.51m1,.56V91.82l1.4-.85,6.68-4.06.62-.38V62.07a2.12,2.12,0,0,1,0-.44l.07-.14.28-.37.09-.11.11-.08L45.84,48.67v-.35C45.93,45,46,41.63,46,38L16.47,55.88m0,0-.1.07"/>
            <path class="cls-2"
                  d="M46.68,112.27a8,8,0,0,1,0,.85c-.18,2.3,0,4.7,0,7,0,2.92-.19,5.76,0,8.69,0,.27,0,.55,0,.83l-.11.14a1.62,1.62,0,0,1-.5-.27q-8.22-5-16.43-9.94c-.65-.39-.54-.21-.54-.93V102.37c0-.19,0-.38,0-.57l.09-.14a.85.85,0,0,1,.36.17L46.32,112a1.93,1.93,0,0,0,.34.09C46.74,112.05,46.65,112.23,46.68,112.27Z"/>
            <path class="cls-3"
                  d="M77.62,55.88l-3.43-2.09L47.09,37.41c-.65-.4-.41-.41-1.1,0l-29.76,18c-.21.13-.43.24-.65.36a1.45,1.45,0,0,1-.83-.33L13,54.36,9.41,52.17c-1-.61-2-1.21-3-1.81L3.68,48.7.88,47c.09-.19.29-.24.44-.33C5,44.45,8.67,42.24,12.34,40l33.93-20.5,0,0a1,1,0,0,1,.22-.06.73.73,0,0,1,.24.07L91.57,46.61c.2.12.38.25.57.38a2.42,2.42,0,0,1-.55.4L88.93,49,86,50.77l-3.1,1.86-3.53,2.15A17.55,17.55,0,0,0,77.62,55.88Z"/>
            <path class="cls-1"
                  d="M15.34,36.45l3.44-2.09L45.87,18c.66-.4.42-.41,1.1,0L76.73,36c.21.13.44.24.65.36a1.44,1.44,0,0,0,.84-.33c.57-.35,1.13-.71,1.7-1.05l3.63-2.2,3-1.81,2.75-1.66c.93-.56,2.6-.73,3.67-1.22-.18-.12-1.16-.71-1.32-.8l-11-6.66L46.69.09l0,0A.7.7,0,0,0,46.42,0a.73.73,0,0,0-.24.07L1.39,27.18l-.57.38a2.2,2.2,0,0,0,.56.4L4,29.56l3,1.78,3.09,1.87c1.18.71,2.36,1.42,3.53,2.14A20.49,20.49,0,0,1,15.34,36.45Z"/>
            <path class="cls-1"
                  d="M77.62,36.47l-3.43-2.09L47.09,18c-.65-.4-.41-.41-1.1,0L16.23,36c-.21.13-.43.24-.65.36a1.45,1.45,0,0,1-.83-.33L13,35,9.41,32.76c-1-.61-2-1.21-3-1.81L3.68,29.29c-.93-.57-2.6-.77-3.68-1.22.2-.18,1.17-.71,1.32-.8C5,25,8.67,22.83,12.34,20.61L46.27.11l0,0A1,1,0,0,1,46.54,0a.73.73,0,0,1,.24.07L91.57,27.2c.2.12.38.25.57.38a2.42,2.42,0,0,1-.55.4l-2.66,1.6L86,31.36l-3.1,1.86-3.53,2.15A17.55,17.55,0,0,0,77.62,36.47Z"/>
            <path class="cls-2"
                  d="M77.62,37.24l-3.43-2.09L47.09,18.76c-.65-.4-.41-.4-1.1,0l-29.76,18c-.21.13-.43.24-.65.36a1.46,1.46,0,0,1-.83-.34L13,35.72l-3.63-2.2-3-1.81L3.68,30.05.88,28.37c.09-.19.29-.24.44-.34l11-6.66L46.27.88l0,0a.7.7,0,0,1,.22-.07,1.09,1.09,0,0,1,.24.07L91.57,28c.2.12.38.25.57.38l-.55.4-2.66,1.59L86,32.13,82.89,34l-3.53,2.14A19.71,19.71,0,0,0,77.62,37.24Z"/>
            <path class="cls-2"
                  d="M15.24,55.41l.52.25c0,15.19,0,31,0,46.21,0,.58.06,1.15.08,1.72a.81.81,0,0,1-.46-.11c-.14-.06-.22-.12-.33-.17C10.3,99.68,5,95.32,1,91.84,1,75.67.88,63.19.88,47a13,13,0,0,1,1.66,1l11.8,7,.9.43"/>
            <path class="cls-1"
                  d="M46.54,95.69c0-.17,0-.34,0-.52V74.63h0L49,73.15,52.49,71l4.13-2.49,3-1.82c1-.63,2.09-1.27,3.15-1.89a7.18,7.18,0,0,1,1.29-.74l.07,0c0,.19,0,.38,0,.57v20a1.09,1.09,0,0,1-.51.91L47,95.59c-.14.08-.26.22-.45.22Z"/>
            <path class="cls-3"
                  d="M64.05,64.09a7.18,7.18,0,0,0-1.29.74c-1.06.62-2.1,1.26-3.15,1.89l-3,1.82L52.49,71,49,73.15l-2,1.18-.49.3-2.1-1.28-3-1.81-3.14-1.89L35.93,68.2,32.35,66l-2.59-1.57a2.28,2.28,0,0,0-.67-.31l0-.18,1.57-1L46,53.69l.1-.06c.49-.28.39-.29.87,0L63.75,63.78A2.9,2.9,0,0,1,64,64Z"/>
            <path class="cls-4" d="M46.43,129.79l.11-.14.14.14C46.59,129.9,46.51,129.89,46.43,129.79Z"/>
            <path class="cls-5" d="M29.05,64c0,.06.08.11,0,.18H29C29,64.07,29,64.07,29.05,64Z"/>
            <path class="cls-4" d="M29.07,101.66l-.1.14c0-.07,0-.13,0-.17Z"/>
            <path class="cls-5" d="M64.05,64.09V64c.06,0,0,0,.08.08Z"/>
            <path class="cls-4" d="M29,85.21l.08.11C29,85.32,29,85.29,29,85.21Z"/>
            <path class="cls-4" d="M77.58,93.38c0,.06,0,.09-.07.09S77.52,93.38,77.58,93.38Z"/>
            <path class="cls-4" d="M46.54,95.69l0,.12-.13,0Z"/>
            <path class="cls-4" d="M15.36,111s0,0,.07,0v.07Z"/>
            <path class="cls-4" d="M46.53,112.27l-.09-.11a.14.14,0,0,1,.11,0A.16.16,0,0,1,46.53,112.27Z"/>
            <rect class="cls-6" x="85.85" y="56.28" width="1.11" height="24.32"/>
            <rect class="cls-6" x="56.55" y="42.7" width="1.1" height="25.59"
                  transform="translate(-20.18 74.65) rotate(-58.1)"/>
            <rect class="cls-1" x="56.55" y="42.7" width="1.1" height="25.59"
                  transform="translate(-20.18 74.65) rotate(-58.1)"/>
            <path class="cls-1"
                  d="M46.85,112.79l-.3-.41,0-.33,0-2.28c0-3,.08-5.77,0-8.77v-.66l0-.53L67.18,87.4v-.17c0-4,.07-8.29.14-12.4s.14-8.4.14-12.46v-.13l.07-.12h0l0,0h0l0-.06v0l.22-.41.17.08.37-.22.27-.17L71,59.83l5.87-3.52c.07-.05.24-.14.41-.23l.08,0,.07,0,.38-.22.6.15,0,.39a.56.56,0,0,1-.28.55V93.4a.79.79,0,0,1-.47.86l-.14.08L47.45,112.46a1.71,1.71,0,0,1-.23.13Zm.47-12.16V101c.11,3,.07,5.85,0,8.82l0,1.48,29.73-17.9V57.48l-5.49,3.3-2.38,1.44-.29.17c-.11.07-.23.13-.34.21,0,4-.07,8.19-.14,12.25s-.14,8.34-.14,12.38a3.16,3.16,0,0,1,0,.44l0,.14-.34.48h-.15l-.11.08ZM67.66,87.19a.47.47,0,0,0-.17,0l.17,0Z"/>
            <path class="cls-2"
                  d="M46.45,95.79,46,95.58l-16.65-10-.33-.23L29,85.21c0-.17,0-.34,0-.51V64.62c0-.15,0-.3,0-.46h.12a2.28,2.28,0,0,1,.67.31L32.35,66l3.58,2.17,2.39,1.45,3.14,1.89,5.09,3.08h0V95.17c0,.18,0,.44,0,.62C46.55,95.82,46.51,95.8,46.45,95.79Z"/>
            <path class="cls-1"
                  d="M78.13,55.53c.4-.27.82-.5,1.23-.75l3.53-2.15L86,50.77,88.93,49l2.66-1.6a5.12,5.12,0,0,0,.55-.4.18.18,0,0,1,.14.16v54.53c0,.73.07.55-.5.89q-22.32,13.5-44.65,27l-.45.25-.14-.14v-16.5s0-.59,0-.88a.16.16,0,0,0,0-.1l8.06-4.87L77.17,93.69l.34-.22c.06,0,.08,0,.07-.09a2.21,2.21,0,0,0,0-.68c0-12.06,0-24.76,0-36.82A2.22,2.22,0,0,1,78.13,55.53Z"/>
            <rect class="cls-1" x="71.76" y="84.45" width="1.11" height="11.9"
                  transform="translate(-41.89 109.38) rotate(-60.78)"/>
            <rect class="cls-1" x="36.29" y="80.68" width="1.11" height="25.59"
                  transform="translate(-61.98 75.35) rotate(-58.1)"/>
        </g>
    </g>
</svg>